<?xml version="1.0" encoding="UTF-8"?><svg id="Layer_2" xmlns="http://www.w3.org/2000/svg" viewBox="0 0 30.91 32"><defs><style>.cls-1{fill:#000000;}.cls-1,.cls-2{stroke-width:0px;}.cls-2{fill:#fff;}</style></defs><g id="Layer_1-2"><path class="cls-1" d="M27.17,17.92c-1.03-.74-1.18-2.88-1.33-5.15-.01-.21-.03-.57-.05-.97v-.12c-.03-.69-.07-1.47-.1-1.81-.05-.89-.2-1.78-.45-2.72l-.09-.35c-.04-.16-.07-.3-.14-.51-.07-.2-.15-.4-.23-.57-.09-.22-.19-.45-.31-.69l-.06-.1c-.16-.3-.31-.55-.45-.75-.35-.53-.78-1.02-1.35-1.55l-.16-.15c-.39-.34-.8-.65-1.32-.98-.06-.04-.12-.08-.18-.11-.19-.11-.4-.22-.66-.34-.17-.08-.34-.15-.51-.22-.73-.3-1.51-.52-2.31-.66-.24-.04-.48-.07-.81-.11-.09-.01-.17-.02-.26-.03-.26-.02-.54-.03-.93-.04-.39,0-.67.02-.93.04-.09,0-.17.02-.26.03-.34.04-.58.07-.82.11-.8.14-1.58.36-2.31.66-.17.07-.34.14-.51.22-.26.13-.47.23-.66.34-.06.03-.12.07-.18.11-.52.32-.94.63-1.32.97l-.17.15c-.57.53-1,1.02-1.34,1.55-.15.21-.29.46-.45.75l-.06.1c-.11.23-.22.46-.31.68-.08.18-.16.38-.22.57-.08.22-.11.36-.14.5l-.09.36c-.26.94-.4,1.83-.45,2.71-.04.35-.07,1.13-.1,1.82v.05c-.02.43-.03.82-.05,1.04-.15,2.27-.3,4.41-1.34,5.14C-.41,20.87,0,25.71.02,25.91c.08.89.8,1.12,1.67,1.12h7.59c.51,2.82,3.09,4.97,6.18,4.97s5.67-2.15,6.18-4.97h7.59c.87,0,1.58-.23,1.67-1.12.02-.2.43-5.04-3.72-7.99Z"/><path class="cls-2" d="M15.45,30.26c-2.12,0-3.9-1.38-4.39-3.23h8.78c-.49,1.85-2.27,3.23-4.39,3.23Z"/><path class="cls-2" d="M29.11,25.22H1.79s-.05-3.8,2.96-5.94c1.75-1.24,1.92-3.73,2.11-6.46.02-.25.04-.64.05-1.11v-.14c.03-.62.06-1.25.09-1.58.05-.8.17-1.53.39-2.35l.03-.13c.02-.08.04-.16.06-.24l.02-.08c.02-.07.03-.13.05-.19.08-.23.14-.38.21-.55.08-.2.16-.37.25-.55.15-.27.26-.47.39-.66.28-.42.62-.81,1.08-1.23l.08-.07c.34-.31.68-.56,1.05-.79l.2-.13c.19-.11.39-.21.54-.28.14-.06.28-.12.42-.18.62-.25,1.27-.44,1.95-.55.2-.03.41-.06.62-.08l.31-.04c.23-.02.48-.03.77-.03h.03c.3,0,.54.02.77.03l.31.04c.21.02.42.05.62.08.68.11,1.33.3,1.95.55.14.06.28.12.42.18.16.08.36.17.54.28l.21.13c.37.23.71.48,1.05.79l.08.07c.46.43.8.82,1.08,1.24.13.18.24.38.39.65.09.17.17.35.25.55.07.17.14.33.21.55.02.06.04.12.05.19v.05c.03.09.06.19.08.27l.03.14c.23.83.35,1.55.39,2.36.03.31.06.91.08,1.49v.25c.03.47.05.9.06,1.15.19,2.72.36,5.13,2.11,6.37,3,2.14,2.99,5.94,2.96,5.94Z"/><path class="cls-2" d="M10.58,24.22s.26,2.27.48,2.81c.38.94,8.55.53,8.78,0s.32-2.94.32-2.94l-9.58.12Z"/></g></svg>