<?xml version="1.0" encoding="UTF-8"?><svg id="Layer_2" xmlns="http://www.w3.org/2000/svg" viewBox="0 0 27.63 28"><defs><style>.cls-1{fill:#000;}.cls-1,.cls-2{stroke-width:0px;}.cls-3{fill:none;stroke:#000;stroke-miterlimit:10;stroke-width:1.5px;}.cls-2{fill:#fff;}</style></defs><g id="Layer_3"><path class="cls-3" d="M4.95,1.08C2.04,2.88.56,5.89.77,9"/><path class="cls-3" d="M6.63,4.53c-1.32,1.21-2.08,2.79-2.24,4.47"/><path class="cls-1" d="M13.65,27.25c-1.35,0-2.48-.9-2.82-2.11h5.64c-.34,1.22-1.47,2.11-2.82,2.11Z"/><path class="cls-1" d="M15.18,25.89c-.39.38-.93.61-1.53.61s-1.14-.23-1.53-.61h3.06M17.32,24.39h-7.35c0,2,1.64,3.61,3.67,3.61s3.67-1.62,3.67-3.61h0Z"/><path class="cls-1" d="M3.38,23.64v-2.48l3.74-3.08v-6.27c0-4.17,2.39-6.57,6.55-6.57s6.5,2.39,6.5,6.57v6.27l3.74,3.08v2.48H3.38Z"/><path class="cls-1" d="M13.67,5.99c4.75,0,5.75,3.16,5.75,5.82v6.63l.55.45,3.2,2.63v1.37H4.13v-1.37l3.2-2.63.55-.45v-6.63c0-2.17.75-5.82,5.8-5.82M13.67,4.49c-4.85,0-7.3,2.99-7.3,7.32v5.92l-3.74,3.08v3.58h22.04v-3.58l-3.74-3.08v-5.92c0-4.33-2.4-7.32-7.25-7.32h0Z"/><rect class="cls-1" x="18.31" width="4.21" height="1.58"/><rect class="cls-1" x="23.87" y="2.67" width="2.1" height="2.48" transform="translate(4.54 18.77) rotate(-45)"/><rect class="cls-1" x="19.62" width="1.58" height="3.65"/><rect class="cls-1" x="14.85" y="2.67" width="2.1" height="2.48" transform="translate(24.39 17.92) rotate(-135)"/><path class="cls-2" d="M20.41,16.08c-3.56,0-6.46-2.9-6.46-6.46s2.9-6.46,6.46-6.46,6.46,2.9,6.46,6.46-2.9,6.46-6.46,6.46Z"/><path class="cls-1" d="M20.41,3.9c3.15,0,5.71,2.56,5.71,5.71s-2.56,5.71-5.71,5.71-5.71-2.56-5.71-5.71,2.56-5.71,5.71-5.71M20.41,2.4c-3.98,0-7.21,3.23-7.21,7.21s3.23,7.21,7.21,7.21,7.21-3.23,7.21-7.21-3.23-7.21-7.21-7.21h0Z"/><polyline class="cls-3" points="20.41 6.94 20.41 9.72 23.42 12.62"/></g></svg>