<svg version="1.2" baseProfile="tiny" viewBox="0 0 18.000 16.688" xmlns:xlink="http://www.w3.org/1999/xlink" xmlns="http://www.w3.org/2000/svg">
<path style="fill:#ffffff;" d="M13.855,0L12.76,4.05l5.207-2.314l-3.643,4.8c0,0,3.795,0.903,3.673,0.903   c-0.055,0-2.937,1.378-2.937,1.378s2.956,3.649,2.939,3.699c-0.011,0.032-5.362-1.888-5.362-1.888l0.487,3.898l-2.826-2.588   l-0.341,4.75l-2.547-3.973l-3.422,3.363l0.69-4.11c0,0-3.218,0.78-3.218,0.73c0-0.122,2.812-3.167,2.812-3.167L0,8.861l4.233-1.888   L0,2.314l5.299,2.253L4.273,2.04l2.7,1.523L7.583,0l2.253,4.324L13.855,0z"/>
</svg>