<svg version="1.2" baseProfile="tiny" viewBox="0 0 18.000 18.000" xmlns:xlink="http://www.w3.org/1999/xlink" xmlns="http://www.w3.org/2000/svg">
<path style="fill:#ffffff;" d="M14.599,10.398l-5.139-3.47c-0.015-0.01-0.033-0.012-0.049-0.02C9.38,6.893,9.351,6.876,9.318,6.87   C9.295,6.865,9.273,6.868,9.251,6.867c-0.029-0.001-0.058-0.005-0.087,0c-0.031,0.005-0.058,0.02-0.086,0.032   C9.059,6.907,9.039,6.909,9.022,6.92L9.014,6.924l0,0l-5.599,3.466c-0.189,0.116-0.248,0.365-0.131,0.554   c0.077,0.124,0.208,0.191,0.343,0.191c0.073,0,0.146-0.02,0.212-0.061l5.385-3.333l4.923,3.324c0.069,0.047,0.147,0.069,0.226,0.069   c0.129,0,0.256-0.063,0.334-0.178C14.832,10.774,14.783,10.523,14.599,10.398z"/>
</svg>