<svg version="1.2" baseProfile="tiny" viewBox="0 0 18.000 18.000" xmlns:xlink="http://www.w3.org/1999/xlink" xmlns="http://www.w3.org/2000/svg">
<path style="fill:#ffffff;" d="M14.599,13.17c0.185,0.124,0.233,0.375,0.108,0.56c-0.078,0.115-0.205,0.177-0.334,0.177   c-0.078,0-0.156-0.021-0.226-0.068l-4.923-3.325l-5.385,3.334c-0.066,0.041-0.139,0.06-0.212,0.06c-0.135,0-0.266-0.067-0.343-0.19   c-0.117-0.189-0.059-0.438,0.131-0.555l5.599-3.465l0,0L9.022,9.69C9.039,9.68,9.059,9.678,9.077,9.67   c0.028-0.012,0.056-0.027,0.086-0.032c0.029-0.005,0.058-0.001,0.087,0c0.022,0.001,0.044-0.002,0.067,0.003   C9.351,9.647,9.38,9.664,9.411,9.679c0.016,0.008,0.034,0.01,0.049,0.02L14.599,13.17z M3.627,8.359c0.073,0,0.146-0.02,0.212-0.061   l5.385-3.333l4.923,3.324c0.069,0.047,0.147,0.069,0.226,0.069c0.129,0,0.256-0.063,0.334-0.177c0.125-0.185,0.076-0.435-0.108-0.56   L9.459,4.151c-0.015-0.01-0.033-0.012-0.049-0.021C9.38,4.116,9.351,4.1,9.318,4.092C9.295,4.088,9.273,4.091,9.251,4.09   c-0.029-0.001-0.058-0.005-0.087,0C9.133,4.095,9.105,4.11,9.077,4.122C9.059,4.13,9.039,4.132,9.022,4.143L9.014,4.147h0   L3.415,7.613C3.226,7.73,3.167,7.979,3.284,8.168C3.361,8.291,3.492,8.359,3.627,8.359z"/>
</svg>