<svg version="1.2" baseProfile="tiny" viewBox="0 0 18.000 18.000" xmlns:xlink="http://www.w3.org/1999/xlink" xmlns="http://www.w3.org/2000/svg">
<path style="fill:#ffffff;" d="M0,0v18h18V0H0z M13.244,16.242c-0.071,0.125-0.205,0.202-0.349,0.202H2.149c-0.144,0-0.277-0.077-0.349-0.202   c-0.072-0.124-0.072-0.278,0-0.402l5.722-9.911l5.722,9.911C13.316,15.964,13.316,16.118,13.244,16.242z M16.185,4.267   c-0.078,0.115-0.205,0.177-0.334,0.177c-0.078,0-0.156-0.022-0.226-0.069l-2.867-1.937L9.615,4.384   c-0.066,0.041-0.139,0.06-0.211,0.06c-0.135,0-0.267-0.067-0.343-0.191c-0.117-0.189-0.059-0.438,0.13-0.554l3.357-2.078l0,0   l0.008-0.005c0.015-0.009,0.031-0.011,0.047-0.018c0.031-0.014,0.063-0.03,0.097-0.036c0.022-0.004,0.045,0,0.068,0   c0.028,0,0.057-0.003,0.086,0.003c0.028,0.006,0.054,0.021,0.081,0.034c0.02,0.009,0.04,0.012,0.059,0.025l3.083,2.082   C16.261,3.832,16.31,4.083,16.185,4.267z"/>
</svg>