<svg version="1.2" baseProfile="tiny" viewBox="0 0 18.000 18.000" xmlns:xlink="http://www.w3.org/1999/xlink" xmlns="http://www.w3.org/2000/svg">
<path style="fill:#ffffff;" d="M9.061,3.792c-0.117-0.189-0.059-0.438,0.13-0.554l3.356-2.078l0,0l0.008-0.005   c0.017-0.01,0.034-0.012,0.052-0.019c0.029-0.013,0.059-0.028,0.092-0.034c0.025-0.004,0.051,0,0.077,0s0.051-0.002,0.076,0.003   c0.032,0.007,0.062,0.023,0.091,0.038c0.017,0.008,0.034,0.01,0.05,0.021l3.084,2.082c0.185,0.125,0.233,0.375,0.108,0.56   c-0.078,0.115-0.205,0.177-0.334,0.177c-0.078,0-0.156-0.022-0.226-0.069l-2.868-1.937L9.615,3.923   c-0.066,0.041-0.139,0.06-0.211,0.06C9.269,3.983,9.136,3.916,9.061,3.792z M7.872,6.457c-0.144-0.25-0.554-0.25-0.698,0L1.8,15.763   c-0.072,0.125-0.072,0.278,0,0.403s0.205,0.201,0.349,0.201h10.746c0.144,0,0.277-0.076,0.349-0.201   c0.072-0.125,0.072-0.278,0-0.403L7.872,6.457z M13.001,4.086L13.001,4.086l-0.009-0.005c-0.014-0.009-0.029-0.011-0.044-0.019   c-0.032-0.016-0.063-0.033-0.098-0.04c-0.022-0.005-0.046-0.002-0.068-0.003c-0.028-0.001-0.057-0.005-0.085,0   c-0.032,0.006-0.063,0.021-0.093,0.035c-0.017,0.007-0.034,0.009-0.05,0.019l-0.007,0.004l-0.001,0L9.191,6.155   C9.001,6.272,8.943,6.52,9.061,6.709C9.136,6.833,9.269,6.9,9.403,6.9c0.073,0,0.146-0.02,0.211-0.061l3.143-1.945l2.867,1.937   C15.694,6.878,15.772,6.9,15.851,6.9c0.129,0,0.256-0.063,0.334-0.177c0.125-0.185,0.076-0.435-0.108-0.56L13.001,4.086z"/>
</svg>