<svg version="1.2" baseProfile="tiny" viewBox="0 0 18.000 18.000" xmlns:xlink="http://www.w3.org/1999/xlink" xmlns="http://www.w3.org/2000/svg">
<path style="fill:#ffffff;" d="M18,0H0.004C0.002,0,0,0.002,0,0.004v17.992C0,17.998,0.002,18,0.004,18h17.992C17.998,18,18,17.998,18,17.996V0z    M14.707,13.728c-0.078,0.115-0.205,0.178-0.334,0.178c-0.078,0-0.156-0.022-0.226-0.069l-4.923-3.325l-5.385,3.334   c-0.066,0.041-0.139,0.061-0.212,0.061c-0.135,0-0.266-0.068-0.343-0.191c-0.117-0.189-0.059-0.438,0.131-0.555l5.599-3.465l0.001,0   l0.007-0.005C9.037,9.679,9.055,9.678,9.071,9.67c0.031-0.014,0.061-0.029,0.094-0.035c0.025-0.004,0.05,0,0.076,0   c0.026,0,0.052-0.002,0.079,0.003c0.03,0.007,0.058,0.022,0.086,0.036c0.018,0.009,0.038,0.012,0.055,0.023l5.139,3.471   C14.783,13.292,14.832,13.543,14.707,13.728z M14.707,8.194c-0.078,0.115-0.205,0.178-0.334,0.178c-0.078,0-0.156-0.022-0.226-0.069   L9.224,4.978L3.839,8.311C3.773,8.352,3.7,8.372,3.627,8.372c-0.135,0-0.266-0.068-0.343-0.191C3.167,7.991,3.226,7.743,3.415,7.625   L9.014,4.16l0,0l0.008-0.004c0.017-0.011,0.037-0.013,0.055-0.021c0.028-0.012,0.056-0.027,0.086-0.032   c0.029-0.005,0.058-0.001,0.087,0C9.273,4.104,9.295,4.1,9.318,4.105C9.351,4.112,9.38,4.128,9.411,4.144   c0.016,0.008,0.034,0.01,0.049,0.021l5.139,3.47C14.783,7.759,14.832,8.01,14.707,8.194z"/>
</svg>