<svg version="1.2" baseProfile="tiny" viewBox="0 0 18.000 18.000" xmlns:xlink="http://www.w3.org/1999/xlink" xmlns="http://www.w3.org/2000/svg">
<path style="fill:#ffffff;" d="M18,0H0v18h18V0z M3.415,10.393l5.606-3.471c0.017-0.01,0.035-0.012,0.052-0.019   c0.03-0.013,0.059-0.028,0.091-0.034c0.027-0.005,0.054,0,0.081,0C9.269,6.87,9.293,6.867,9.318,6.872   c0.034,0.007,0.063,0.024,0.094,0.039c0.016,0.008,0.032,0.01,0.047,0.02l0.007,0.005l0,0l5.132,3.465   c0.185,0.125,0.233,0.375,0.108,0.56c-0.078,0.115-0.205,0.178-0.334,0.178c-0.078,0-0.156-0.022-0.226-0.069L9.224,7.745   l-5.385,3.333c-0.066,0.041-0.139,0.061-0.211,0.061c-0.135,0-0.267-0.068-0.343-0.191C3.167,10.758,3.226,10.51,3.415,10.393z"/>
</svg>