<svg version="1.2" baseProfile="tiny" viewBox="0 0 18.000 18.000" xmlns:xlink="http://www.w3.org/1999/xlink" xmlns="http://www.w3.org/2000/svg">
<path style="fill:#ffffff;" d="M17.991,0H0.009C0.004,0,0,0.004,0,0.009v17.982C0,17.996,0.004,18,0.009,18h17.982   C17.996,18,18,17.996,18,17.991V0.009C18,0.004,17.996,0,17.991,0z M9.191,3.238l3.356-2.078l0,0l0.008-0.005   c0.017-0.01,0.034-0.012,0.052-0.019c0.029-0.013,0.059-0.028,0.092-0.034c0.025-0.004,0.051,0,0.077,0s0.051-0.002,0.076,0.003   c0.032,0.007,0.062,0.023,0.091,0.038c0.017,0.008,0.034,0.01,0.05,0.021l3.084,2.082c0.185,0.125,0.233,0.375,0.108,0.56   c-0.078,0.115-0.205,0.177-0.334,0.177c-0.078,0-0.156-0.022-0.226-0.069l-2.868-1.937L9.615,3.923   c-0.066,0.041-0.139,0.06-0.211,0.06c-0.135,0-0.267-0.067-0.343-0.191C8.943,3.604,9.001,3.355,9.191,3.238z M13.244,16.166   c-0.071,0.125-0.205,0.201-0.349,0.201H2.149c-0.144,0-0.277-0.076-0.349-0.201s-0.072-0.278,0-0.403l5.373-9.306   c0.144-0.25,0.554-0.25,0.698,0l5.373,9.306C13.316,15.888,13.316,16.041,13.244,16.166z M16.185,6.723   C16.106,6.838,15.979,6.9,15.851,6.9c-0.078,0-0.156-0.022-0.226-0.069l-2.867-1.937L9.615,6.84C9.549,6.881,9.476,6.9,9.403,6.9   c-0.135,0-0.267-0.068-0.343-0.191C8.943,6.52,9.001,6.272,9.191,6.155l3.356-2.077l0.001,0l0.007-0.004   c0.016-0.01,0.033-0.011,0.05-0.019c0.03-0.014,0.061-0.029,0.093-0.035c0.028-0.005,0.057-0.001,0.085,0   c0.022,0.001,0.046-0.002,0.068,0.003c0.035,0.007,0.065,0.024,0.098,0.04c0.015,0.008,0.03,0.009,0.044,0.019L13,4.086l0.001,0   l3.075,2.077C16.261,6.288,16.31,6.538,16.185,6.723z"/>
</svg>