<svg version="1.2" baseProfile="tiny" viewBox="0 0 32 32" xmlns:xlink="http://www.w3.org/1999/xlink" xmlns="http://www.w3.org/2000/svg">
<path style="fill:#ffffff;" d="M16,0C7.178,0,0,7.177,0,16C0,24.823,7.178,32,16,32C24.822,32,32,24.823,32,16C32,7.177,24.822,0,16,0ZM16,30.373C8.075,30.373,1.627,23.925,1.627,16C1.627,8.075,8.075,1.627,16,1.627C23.925,1.627,30.373,8.075,30.373,16C30.373,23.925,23.925,30.373,16,30.373Z M16.314,11.78H15.557C15.118,11.78,14.758,12.14,14.758,12.579V25.765C14.758,26.204,15.118,26.564,15.557,26.564H16.314C16.753,26.564,17.113,26.204,17.113,25.765V12.579C17.113,12.139,16.754,11.78,16.314,11.78Z M16,5.75101C15.09,5.75101,14.352,6.48901,14.352,7.39901C14.352,8.30901,15.09,9.04701,16,9.04701C16.91,9.04701,17.648,8.30901,17.648,7.39901C17.648,6.48901,16.91,5.75101,16,5.75101Z"/>
</svg>