<svg version="1.2" baseProfile="tiny" viewBox="0 0 41.601 41.601" xmlns:xlink="http://www.w3.org/1999/xlink" xmlns="http://www.w3.org/2000/svg">
<path style="fill:#ffffff;" d="M1.0001,41.601C0.7638,41.601,0.5329,41.517,0.3511,41.3618C0.1281,41.1708,0.0,40.8942,0.0,40.6009L0.0,1.0001C0.0,0.708,0.1281,0.4289,0.3511,0.2392C0.5749,0.0491,0.8678,-0.0341,1.1582,0.0121L40.759,6.3121C41.2441,6.3899,41.6018,6.808,41.6018,7.3001L41.6018,34.3C41.6018,34.7909,41.2449,35.2098,40.759,35.2868L1.1569,41.5881C1.1041,41.5968,1.0521,41.601,1.0001,41.601M2.0002,2.172L2.0002,39.429L39.6008,33.4472L39.6008,8.153L2.0002,2.172Z"/>
</svg>