<svg version="1.2" baseProfile="tiny" viewBox="0 0 18.000 18.000" xmlns:xlink="http://www.w3.org/1999/xlink" xmlns="http://www.w3.org/2000/svg">
<path style="fill:#ffffff;" d="M3.401,7.601l5.139,3.47c0.015,0.011,0.033,0.013,0.049,0.021   c0.03,0.016,0.06,0.031,0.093,0.039c0.022,0.004,0.044,0.001,0.067,0.002c0.029,0.002,0.058,0.006,0.087,0   c0.031-0.005,0.058-0.02,0.086-0.032c0.019-0.008,0.038-0.01,0.055-0.021l0.008-0.005h0l5.599-3.465   c0.189-0.117,0.248-0.366,0.131-0.555c-0.076-0.124-0.208-0.191-0.343-0.191c-0.072,0-0.146,0.019-0.212,0.06l-5.385,3.333   L3.853,6.933C3.783,6.886,3.705,6.864,3.627,6.864c-0.129,0-0.256,0.062-0.334,0.177C3.168,7.226,3.217,7.477,3.401,7.601z"/>
</svg>