<svg version="1.2" baseProfile="tiny" viewBox="0 0 18.000 18.000" xmlns:xlink="http://www.w3.org/1999/xlink" xmlns="http://www.w3.org/2000/svg">
<path style="fill:#ffffff;" d="M0,18h18V0H0V18z M14.585,7.607l-5.606,3.471c-0.017,0.01-0.035,0.012-0.052,0.019   c-0.03,0.014-0.059,0.028-0.091,0.034c-0.027,0.005-0.054,0.001-0.081,0c-0.024-0.001-0.049,0.002-0.073-0.003   c-0.034-0.007-0.063-0.023-0.094-0.039c-0.016-0.008-0.032-0.01-0.047-0.02l-0.007-0.005h0L3.401,7.599   c-0.184-0.125-0.233-0.375-0.108-0.56c0.078-0.115,0.205-0.177,0.334-0.177c0.078,0,0.156,0.022,0.225,0.069l4.924,3.325   l5.385-3.334c0.066-0.041,0.139-0.06,0.212-0.06c0.135,0,0.267,0.068,0.343,0.191C14.833,7.242,14.774,7.49,14.585,7.607z"/>
</svg>