<svg version="1.2" baseProfile="tiny" viewBox="0 0 18.000 18.000" xmlns:xlink="http://www.w3.org/1999/xlink" xmlns="http://www.w3.org/2000/svg">
<path style="fill:#ffffff;" d="M0,0v17.99C0,17.995,0.004,18,0.01,18h17.98c0.005,0,0.01-0.005,0.01-0.01V0H0z M13.244,16.243   c-0.071,0.124-0.204,0.201-0.349,0.201H2.149c-0.144,0-0.277-0.077-0.349-0.201c-0.072-0.125-0.072-0.278,0-0.403l5.713-9.896   c0.004-0.006,0.014-0.006,0.018,0l5.713,9.896C13.316,15.965,13.316,16.118,13.244,16.243z M16.063,2.301l-3.364,2.083   c-0.006,0.004-0.012,0.005-0.018,0.008c-0.009,0.004-0.018,0.007-0.026,0.011c-0.054,0.025-0.11,0.041-0.168,0.041l0,0l0,0   c-0.059,0-0.117-0.018-0.173-0.044c-0.01-0.005-0.02-0.008-0.029-0.014c-0.008-0.004-0.016-0.006-0.023-0.011L9.177,2.292   c-0.184-0.125-0.233-0.375-0.108-0.56C9.194,1.548,9.444,1.5,9.628,1.625l2.868,1.937l3.143-1.945   c0.188-0.117,0.438-0.059,0.555,0.13C16.311,1.936,16.252,2.185,16.063,2.301z"/>
</svg>