<svg version="1.2" baseProfile="tiny" viewBox="0 0 18.000 18.000" xmlns:xlink="http://www.w3.org/1999/xlink" xmlns="http://www.w3.org/2000/svg">
<path style="fill:#ffffff;" d="M13.244,15.84c0.072,0.125,0.072,0.278,0,0.403   c-0.071,0.124-0.204,0.201-0.349,0.201H2.149c-0.144,0-0.277-0.077-0.349-0.201c-0.072-0.125-0.072-0.278,0-0.403l5.713-9.896   c0.004-0.006,0.014-0.006,0.018,0L13.244,15.84z M15.639,1.616l-3.143,1.945L9.628,1.625C9.444,1.5,9.194,1.548,9.069,1.733   c-0.125,0.185-0.076,0.435,0.108,0.56l3.083,2.083c0.008,0.005,0.016,0.007,0.023,0.011c0.01,0.006,0.02,0.009,0.029,0.014   c0.056,0.026,0.114,0.044,0.173,0.044l0,0l0,0c0.058,0,0.114-0.016,0.168-0.041c0.009-0.004,0.018-0.007,0.026-0.011   c0.006-0.003,0.012-0.004,0.018-0.008l3.364-2.083c0.189-0.117,0.248-0.366,0.131-0.555C16.076,1.557,15.827,1.499,15.639,1.616z"/>
</svg>