<svg version="1.2" baseProfile="tiny" viewBox="0 0 18.000 18.000" xmlns:xlink="http://www.w3.org/1999/xlink" xmlns="http://www.w3.org/2000/svg">
<path style="fill:#ffffff;" d="M17.597,0H0.006C0.003,0,0,0.003,0,0.006v17.59C0,17.819,0.181,18,0.403,18h17.194C17.819,18,18,17.819,18,17.597   V0.403C18,0.181,17.819,0,17.597,0z M13.244,16.165c-0.071,0.125-0.204,0.202-0.349,0.202H2.149c-0.144,0-0.277-0.077-0.349-0.202   c-0.072-0.124-0.072-0.277,0-0.402l5.373-9.307c0.155-0.269,0.543-0.269,0.698,0l5.373,9.307   C13.316,15.888,13.316,16.041,13.244,16.165z M16.063,4.758L12.698,6.84c-0.006,0.003-0.012,0.004-0.018,0.008   c-0.009,0.005-0.018,0.007-0.026,0.011C12.601,6.884,12.544,6.9,12.486,6.9l0,0l0,0c-0.059,0-0.117-0.017-0.172-0.044   c-0.011-0.005-0.021-0.008-0.031-0.014c-0.007-0.004-0.015-0.006-0.022-0.011L9.177,4.749C8.993,4.625,8.944,4.374,9.069,4.189   c0.125-0.185,0.375-0.232,0.56-0.108l2.868,1.937l3.143-1.945c0.188-0.117,0.438-0.059,0.555,0.131S16.252,4.641,16.063,4.758z    M16.063,1.841l-3.364,2.082c-0.006,0.003-0.012,0.004-0.018,0.008c-0.009,0.005-0.018,0.007-0.026,0.012   c-0.054,0.025-0.11,0.041-0.168,0.041l0,0l0,0c-0.059,0-0.117-0.017-0.173-0.044c-0.01-0.005-0.02-0.008-0.03-0.014   c-0.007-0.004-0.015-0.006-0.022-0.011L9.177,1.832c-0.184-0.125-0.233-0.375-0.108-0.56c0.125-0.185,0.375-0.232,0.56-0.108   l2.868,1.936l3.143-1.945c0.188-0.117,0.438-0.059,0.555,0.131S16.252,1.724,16.063,1.841z"/>
</svg>