<svg version="1.2" baseProfile="tiny" viewBox="0 0 18.000 18.000" xmlns:xlink="http://www.w3.org/1999/xlink" xmlns="http://www.w3.org/2000/svg">
<path style="fill:#ffffff;" d="M13.244,15.763c0.072,0.125,0.072,0.278,0,0.402   c-0.071,0.125-0.204,0.202-0.349,0.202H2.149c-0.144,0-0.277-0.077-0.349-0.202c-0.072-0.124-0.072-0.277,0-0.402l5.373-9.307   c0.155-0.269,0.543-0.269,0.698,0L13.244,15.763z M15.639,4.072l-3.143,1.945L9.628,4.081c-0.185-0.124-0.435-0.076-0.56,0.108   C8.944,4.374,8.993,4.625,9.177,4.749l3.083,2.082c0.008,0.005,0.016,0.007,0.022,0.011c0.011,0.006,0.021,0.009,0.031,0.014   C12.369,6.883,12.428,6.9,12.486,6.9l0,0l0,0c0.058,0,0.114-0.016,0.168-0.041c0.009-0.004,0.018-0.006,0.026-0.011   c0.006-0.003,0.012-0.004,0.018-0.008l3.364-2.082c0.189-0.117,0.248-0.365,0.131-0.555S15.827,3.955,15.639,4.072z M15.639,1.155   l-3.143,1.945L9.628,1.165C9.444,1.04,9.194,1.088,9.069,1.272c-0.125,0.185-0.076,0.435,0.108,0.56l3.083,2.082   c0.008,0.004,0.016,0.006,0.022,0.011c0.011,0.006,0.021,0.009,0.03,0.014c0.056,0.027,0.114,0.044,0.173,0.044l0,0l0,0   c0.058,0,0.114-0.016,0.168-0.041c0.009-0.004,0.018-0.007,0.026-0.012c0.006-0.003,0.012-0.004,0.018-0.008l3.364-2.082   c0.189-0.117,0.248-0.365,0.131-0.555S15.827,1.039,15.639,1.155z"/>
</svg>