<?xml version="1.0" encoding="UTF-8"?><svg id="Layer_2" xmlns="http://www.w3.org/2000/svg" viewBox="0 0 13.41 20.03"><defs><style>.cls-1{fill:#6a6a6a;}.cls-1,.cls-2{stroke-width:0px;}.cls-2{fill:#6a6a6a;}.cls-3{fill:none;stroke:#6a6a6a;stroke-linejoin:round;stroke-width:1.25px;}</style></defs><g id="Layer_1-2"><path class="cls-2" d="M13.41,6.71c0-3.7-3.01-6.71-6.71-6.71S0,3.01,0,6.71s3.01,6.71,6.71,6.71,6.71-3.01,6.71-6.71ZM6.71,12.37c-3.12,0-5.67-2.54-5.67-5.67S3.58,1.04,6.71,1.04s5.67,2.54,5.67,5.67-2.54,5.67-5.67,5.67Z"/><line class="cls-3" x1="6.71" y1="12.96" x2="6.71" y2="20.03"/><path class="cls-1" d="M5.17,9.59h-1.04V3.83h1.62l.97,4.53.96-4.53h1.6v5.76h-1.04v-3.89c0-.11,0-.27,0-.47s0-.36,0-.47l-1.01,4.83h-1.08l-1-4.83c0,.11,0,.27,0,.47,0,.2,0,.36,0,.47v3.89Z"/></g></svg>