<svg version="1.2" baseProfile="tiny" viewBox="0 0 18 17.686" xmlns:xlink="http://www.w3.org/1999/xlink" xmlns="http://www.w3.org/2000/svg">
<path style="fill:#ffffff;" d="M 9.0703125 0 C 7.5596025 0 6.2447925 1.9542769 5.6015625 4.8105469 C 5.5720525 4.9344669 5.5411781 5.0635294 5.5175781 5.1933594 C 5.4408381 5.5769494 5.3773288 5.9833944 5.3242188 6.3964844 C 5.3065188 6.5204144 5.2950437 6.6456013 5.2773438 6.7695312 A 19.61515 19.61515 0 0 0 5.1699219 8.8398438 A 19.39027 19.39027 0 0 0 5.2773438 10.900391 C 5.2891438 11.024321 5.3065188 11.147554 5.3242188 11.271484 C 5.3654988 11.619664 5.4175625 11.962489 5.4765625 12.292969 C 5.5001725 12.416899 5.5310775 12.545992 5.5546875 12.669922 C 6.1861175 15.638312 7.5183125 17.685547 9.0703125 17.685547 C 10.610553 17.685547 11.950601 15.655758 12.582031 12.705078 C 12.251531 12.764088 11.908717 12.818065 11.560547 12.859375 C 11.082577 15.214025 10.186966 16.800781 9.1601562 16.800781 C 8.1392362 16.800781 7.2417125 15.214025 6.7578125 12.859375 C 6.7342025 12.741345 6.7110694 12.618061 6.6933594 12.494141 C 6.6284794 12.163661 6.5803725 11.820937 6.5390625 11.460938 C 6.5213625 11.342938 6.5098469 11.223539 6.4980469 11.099609 A 20.15705 20.15705 0 0 1 6.3867188 8.9042969 A 21.101 21.101 0 0 1 6.5097656 6.5683594 C 6.5215656 6.4444094 6.5389406 6.3269844 6.5566406 6.2089844 C 6.6038506 5.7840844 6.6752331 5.3757775 6.7519531 4.9921875 C 6.7755731 4.8623975 6.8044444 4.7390938 6.8339844 4.6210938 C 7.3237844 2.4434937 8.1864562 1.0039062 9.1601562 1.0039062 C 10.139776 1.0039062 10.994534 2.4434937 11.490234 4.6210938 C 11.519744 4.7391237 11.542796 4.8623575 11.566406 4.9921875 C 11.649016 5.3816775 11.714438 5.7957625 11.773438 6.2265625 C 11.785238 6.3386525 11.796784 6.4620781 11.808594 6.5800781 C 11.843994 6.8928281 11.874878 7.2105762 11.892578 7.5351562 L 10.28125 7.5351562 L 11.892578 10.310547 L 12.298828 11.011719 L 12.404297 11.195312 L 12.529297 10.976562 L 12.535156 10.976562 L 12.917969 10.316406 L 12.917969 10.310547 L 14.529297 7.5351562 L 12.923828 7.5351562 C 12.912028 7.2695762 12.888875 7.0115725 12.859375 6.7578125 C 12.847565 6.6338925 12.836059 6.508625 12.818359 6.390625 C 12.765249 5.965725 12.699798 5.5535931 12.617188 5.1582031 C 12.593568 5.0283731 12.564656 4.9032269 12.535156 4.7792969 C 11.886046 1.9407369 10.575133 0 9.0703125 0 z M 0.87304688 5.1171875 L 1.4335938 6.6152344 A 2.71815 2.71815 0 0 0 0 8.7460938 C 0 10.256844 1.9407563 11.565774 4.7851562 12.208984 C 4.7202363 11.878544 4.6741225 11.543503 4.6328125 11.195312 C 2.3785425 10.705503 0.88472562 9.8313144 0.88476562 8.8339844 A 1.64471 1.64471 0 0 1 1.78125 7.5546875 L 2.3496094 9.0703125 L 4.4902344 6.5097656 L 4.65625 6.3144531 L 5.0625 5.8242188 L 4.7324219 5.7714844 L 3.6582031 5.5878906 L 0.87304688 5.1171875 z M 12.996094 5.2285156 C 13.072834 5.6239056 13.136343 6.0379906 13.189453 6.4628906 C 15.467333 6.9468006 16.996094 7.8307544 16.996094 8.8339844 C 16.996094 9.8431144 15.467363 10.723121 13.189453 11.207031 C 13.065526 11.236531 12.942286 11.25963 12.818359 11.277344 C 12.487889 11.342254 12.139226 11.401999 11.785156 11.449219 C 11.667156 11.461019 11.543781 11.472575 11.425781 11.484375 A 20.95083 20.95083 0 0 1 9.0996094 11.607422 A 20.37573 20.37573 0 0 1 6.8925781 11.496094 C 6.9397881 11.861974 6.9937344 12.204676 7.0527344 12.535156 A 20.27267 20.27267 0 0 0 9.1601562 12.646484 A 20.272 20.272 0 0 0 11.265625 12.535156 C 11.389535 12.523346 11.508892 12.504028 11.632812 12.486328 C 11.986886 12.445041 12.32773 12.393065 12.658203 12.328125 L 13.03125 12.257812 C 15.97596 11.620532 18 10.286344 18 8.7460938 C 18 7.1999337 15.958534 5.8599956 12.996094 5.2285156 z "/>
</svg>