<svg xmlns="http://www.w3.org/2000/svg" viewBox="0 0 26.52 32"><defs><style>.cls-1{fill:#6a6a6a;}</style></defs><g id="Layer_2" data-name="Layer 2"><g id="Layer_1-2" data-name="Layer 1"><path class="cls-1" d="M20.47,4.92a.65.65,0,0,0-.2.89,5.79,5.79,0,0,1,0,6.23.66.66,0,0,0,.2.9.64.64,0,0,0,.35.1.62.62,0,0,0,.54-.3,7.12,7.12,0,0,0,0-7.62A.64.64,0,0,0,20.47,4.92Z"/><path class="cls-1" d="M25,3.48a.69.69,0,1,0-1.16.73,8.86,8.86,0,0,1,0,9.45.68.68,0,0,0,.2.95.67.67,0,0,0,.38.11.7.7,0,0,0,.58-.32A10.2,10.2,0,0,0,25,3.48Z"/><path class="cls-1" d="M5.35,8.89a5.86,5.86,0,0,1,.9-3.08.65.65,0,0,0-.2-.89.64.64,0,0,0-.9.2,7.12,7.12,0,0,0,0,7.62.62.62,0,0,0,.54.3.65.65,0,0,0,.55-1A5.85,5.85,0,0,1,5.35,8.89Z"/><path class="cls-1" d="M1.38,8.88A8.76,8.76,0,0,1,2.73,4.21a.69.69,0,1,0-1.16-.73,10.17,10.17,0,0,0,0,10.92.68.68,0,0,0,1,.21.69.69,0,0,0,.21-.95A8.71,8.71,0,0,1,1.38,8.88Z"/><path class="cls-1" d="M17.44,0a.74.74,0,0,0-.74.73V15.5a3.44,3.44,0,0,1-6.88,0V.73a.74.74,0,0,0-1.47,0V15.5a4.91,4.91,0,0,0,4.18,4.83v8.29a1.77,1.77,0,1,0,1.46,0V20.33a4.91,4.91,0,0,0,4.18-4.83V.73A.73.73,0,0,0,17.44,0Z"/></g></g></svg>