<svg width="22" height="25" viewBox="0 0 22 25" fill="none" xmlns="http://www.w3.org/2000/svg">
<circle cx="2.94196" cy="2.94196" r="2.44196" transform="matrix(-0.425353 -0.905028 -0.905028 0.425353 22 13.2459)" stroke="#6A6A6A"/>
<circle cx="2.94196" cy="2.94196" r="2.44196" transform="matrix(-0.425353 -0.905028 -0.905028 0.425353 22 21.5246)" stroke="#6A6A6A"/>
<circle cx="2.94196" cy="2.94196" r="2.44196" transform="matrix(-0.425353 -0.905028 -0.905028 0.425353 22 5.32512)" fill="#6A6A6A" stroke="#6A6A6A"/>
<path d="M13.4341 6.56159C13.6465 6.55268 13.7724 6.79606 13.6424 6.96425L8.47447 13.651C8.36269 13.7956 8.13858 13.7753 8.05461 13.613L4.77895 7.28061C4.69497 7.11827 4.8079 6.92363 4.99052 6.91597L13.4341 6.56159Z" fill="#6A6A6A"/>
<rect x="1.6557" y="11.5981" width="4.96722" height="2.89755" transform="rotate(-30 1.6557 11.5981)" fill="#6A6A6A"/>
</svg>
