<svg version="1.2" baseProfile="tiny" viewBox="0 0 15.456 18.000" xmlns:xlink="http://www.w3.org/1999/xlink" xmlns="http://www.w3.org/2000/svg">
<path style="fill:#6a6a6a;" d="M2.138,18c-0.396,0-0.794-0.124-1.133-0.38l-0.256-0.193c-0.4-0.302-0.66-0.744-0.73-1.244   c-0.07-0.5,0.059-0.996,0.361-1.396l4.35-5.765c-1.329-2.036-1.25-4.748,0.227-6.706c1.646-2.182,4.638-2.93,7.113-1.779   c0.119,0.055,0.207,0.162,0.238,0.289c0.032,0.127,0.005,0.263-0.074,0.368L9.355,5.009l1.202,0.907l2.865-3.796   c0.08-0.106,0.204-0.169,0.337-0.173c0.134-0.002,0.26,0.055,0.345,0.157c1.738,2.091,1.807,5.068,0.168,7.24   c-1.46,1.935-3.938,2.756-6.245,2.101l-4.381,5.806C3.276,17.741,2.71,18,2.138,18z M9.63,0.87c-1.524,0-3.02,0.699-3.979,1.97   C4.338,4.58,4.324,7.021,5.617,8.774C5.73,8.929,5.729,9.141,5.614,9.295l-4.54,6.016c-0.163,0.215-0.231,0.482-0.193,0.752   c0.038,0.27,0.177,0.508,0.392,0.67l0.256,0.193c0.447,0.337,1.084,0.248,1.422-0.199l4.565-6.05c0.113-0.15,0.311-0.21,0.488-0.149   c2.037,0.697,4.276,0.012,5.573-1.707c1.281-1.698,1.335-3.975,0.189-5.712l-2.777,3.68c-0.145,0.192-0.417,0.23-0.609,0.085   L8.483,5.442C8.391,5.372,8.33,5.269,8.314,5.155c-0.016-0.114,0.014-0.23,0.084-0.323l2.798-3.708   C10.685,0.953,10.156,0.87,9.63,0.87z"/>
</svg>