<svg version="1.2" baseProfile="tiny" viewBox="0 0 18.000 17.999" xmlns:xlink="http://www.w3.org/1999/xlink" xmlns="http://www.w3.org/2000/svg">
<path style="fill:#ffffff;" d="M18,9.092c0,0.241-0.073,0.48-0.336,0.665L6.079,17.842C5.554,18.208,5.24,17.909,5.24,17.18V1.005   c0-0.73,0.314-1.031,0.839-0.667L17.605,8.43C17.869,8.613,18,8.854,18,9.092L18,9.092z M2.469,0.91c0-0.5-0.4-0.91-0.889-0.91   H0.889C0.399,0,0,0.411,0,0.91v15.833c0,0.499,0.399,0.907,0.889,0.907H1.58c0.489,0,0.889-0.408,0.889-0.907V0.91z"/>
</svg>