<svg version="1.2" baseProfile="tiny" viewBox="0 0 18.000 12.375" xmlns:xlink="http://www.w3.org/1999/xlink" xmlns="http://www.w3.org/2000/svg">
<path style="fill:#ffffff;" d="M17.435,1.448H6.438H2.837H0.893C0.584,1.448,0,1.78,0,2.101v9.314c0,0.317,0.584,0.96,0.893,0.96   h16.542c0.311,0,0.565-0.643,0.565-0.96V2.101C18,1.78,17.745,1.448,17.435,1.448z M9.164,10.889c-2.22,0-4.022-1.85-4.022-4.131   c0-2.283,1.802-4.132,4.022-4.132c2.221,0,4.022,1.849,4.022,4.132C13.187,9.039,11.385,10.889,9.164,10.889z M17.182,3.387   c0,0.322-0.253,0.581-0.563,0.581h-2.146c-0.313,0-0.563-0.259-0.563-0.581V2.87c0-0.322,0.25-0.583,0.563-0.583h2.146   c0.311,0,0.563,0.262,0.563,0.583V3.387z M6.546,0.84H2.454V0h4.092V0.84z M9.164,9.939c-1.74,0-3.152-1.451-3.152-3.24   c0-1.788,1.412-3.24,3.152-3.24c1.742,0,3.152,1.452,3.152,3.24C12.316,8.488,10.906,9.939,9.164,9.939z"/>
</svg>