<svg width="16" height="16" viewBox="0 0 16 16" fill="none" xmlns="http://www.w3.org/2000/svg">
<path fill-rule="evenodd" clip-rule="evenodd" d="M13.7224 9.4027C13.8576 8.8619 13.9116 8.30758 13.8914 7.75326L15.027 7.6451L14.9932 7.32738C14.9054 6.40802 14.6417 5.52921 14.1956 4.69097L14.0401 4.40705L13.0396 4.95461C12.7489 4.47465 12.3906 4.04201 11.9783 3.66345H11.985L12.6813 2.80493C12.6272 2.75085 12.4447 2.56156 12.4447 2.56156C12.1 2.27764 11.7282 2.03428 11.3428 1.82472L11.3023 1.80444C11.1198 1.7098 10.9372 1.62192 10.7479 1.5408C10.7412 1.53742 10.7327 1.53404 10.7243 1.53066C10.7158 1.52728 10.7074 1.5239 10.7006 1.52052C10.5113 1.4394 10.3153 1.3718 10.1125 1.31096C10.0922 1.3042 10.0719 1.29744 10.0449 1.29068L9.74071 1.2028L9.45002 2.16948L9.40946 2.29792C8.86866 2.16272 8.31434 2.10864 7.76002 2.13568L7.6451 1L7.32738 1.0338C6.41478 1.12168 5.53597 1.38532 4.71125 1.82472L4.42733 1.97344L4.95461 2.98745C4.48141 3.27813 4.04877 3.62289 3.67697 4.03525L3.21053 3.65669L2.81844 3.33897L2.56832 3.58909C2.2844 3.94061 2.03428 4.31917 1.81796 4.71125C1.60164 5.11009 1.43264 5.52921 1.29744 5.97537L1.2028 6.27281L2.29793 6.61082C2.23032 6.88122 2.183 7.15162 2.15596 7.42878V7.4288C2.15596 7.47612 2.15596 7.53019 2.1492 7.5775C2.1492 7.62144 2.14582 7.66538 2.14244 7.70931L2.14244 7.70932C2.13906 7.75326 2.13568 7.7972 2.13568 7.84114V8.2535L1 8.36842L1.02704 8.67938C1.03042 8.71994 1.03549 8.75881 1.04056 8.79768C1.04563 8.83655 1.0507 8.87542 1.05408 8.91598C1.05408 8.94486 1.05901 8.97373 1.06467 9.00682L1.0676 9.02414C1.0676 9.05475 1.07325 9.08252 1.07908 9.11113C1.08226 9.12675 1.08549 9.14263 1.08788 9.15934C1.09517 9.19581 1.1005 9.23227 1.10598 9.26979L1.10598 9.2698L1.10598 9.26981C1.11066 9.30185 1.11545 9.33466 1.12168 9.36891C1.22984 9.92323 1.41236 10.4573 1.65572 10.9778L1.79768 11.2617C1.79768 11.2617 1.8112 11.2888 1.8112 11.3023L1.95992 11.5794L2.96717 11.0454C2.96717 11.0454 2.98745 11.0724 2.99421 11.0859C3.06181 11.1941 3.12941 11.2955 3.19701 11.3969C3.24433 11.4645 3.29841 11.5321 3.35249 11.5997C3.36939 11.62 3.3846 11.6403 3.39981 11.6606C3.41502 11.6808 3.43023 11.7011 3.44713 11.7214C3.62289 11.9377 3.81217 12.1338 4.01497 12.323L3.29165 13.2018L3.52825 13.3979C3.52825 13.3979 3.56205 13.4249 3.57557 13.4384C3.73105 13.5669 3.89329 13.6886 4.06229 13.7967C4.07581 13.8069 4.09102 13.817 4.10623 13.8271C4.12144 13.8373 4.13665 13.8474 4.15017 13.8576C4.31241 13.9657 4.47465 14.0604 4.64365 14.155C4.66055 14.1618 4.67576 14.1702 4.69097 14.1787C4.70618 14.1871 4.72139 14.1956 4.73829 14.2023C4.92081 14.297 5.10333 14.3848 5.28585 14.4592C5.29618 14.4592 5.31045 14.4671 5.32264 14.4738L5.32857 14.4771L5.33317 14.4795C5.53597 14.5606 5.73877 14.635 5.94833 14.6958L6.1241 14.7499L6.25254 14.7904L6.58378 13.6953C6.6311 13.7088 6.67166 13.7156 6.71898 13.7224C6.7663 13.7325 6.81193 13.7426 6.85756 13.7528C6.90319 13.7629 6.94882 13.7731 6.99614 13.7832C7.0638 13.7955 7.13146 13.8022 7.19404 13.8084L7.21246 13.8102C7.24288 13.8136 7.27499 13.8187 7.3071 13.8238C7.33921 13.8288 7.37132 13.8339 7.40174 13.8373H7.40176C7.45583 13.8373 7.50991 13.8373 7.55722 13.8508C7.60115 13.8508 7.64339 13.8542 7.68562 13.8576L7.68566 13.8576C7.72791 13.8609 7.77016 13.8643 7.8141 13.8643H7.85466H8.23322L8.34138 15L8.65234 14.973C9.5717 14.8851 10.4505 14.6214 11.2888 14.1753L11.5591 14.0333L11.0251 13.0261C11.0995 12.9788 11.1738 12.9314 11.2482 12.8774C11.2596 12.8698 11.2714 12.8622 11.2836 12.8545L11.2836 12.8545C11.3147 12.8346 11.3474 12.8138 11.3766 12.7895C11.4645 12.7286 11.5456 12.6678 11.6268 12.6002L11.7079 12.5394C11.8025 12.4582 11.8972 12.3771 11.985 12.296C11.9918 12.2926 11.9969 12.2875 12.0019 12.2825C12.007 12.2774 12.0121 12.2723 12.0188 12.269C12.1202 12.1743 12.2149 12.0729 12.3095 11.9715L12.323 11.958L13.2086 12.6813L13.3911 12.4582C13.6074 12.1946 13.8035 11.9174 13.9792 11.6335C13.9792 11.6335 13.986 11.62 13.9928 11.6132C14.0164 11.5727 14.0401 11.5304 14.0637 11.4882C14.0874 11.4459 14.1111 11.4037 14.1347 11.3631C14.1381 11.3563 14.1432 11.3479 14.1482 11.3394L14.1483 11.3394C14.1533 11.331 14.1584 11.3225 14.1618 11.3158C14.182 11.2786 14.2006 11.2414 14.2192 11.2042C14.2378 11.1671 14.2564 11.1299 14.2767 11.0927C14.2902 11.0657 14.3037 11.0386 14.3172 11.0048L14.3328 10.9706L14.3474 10.939C14.367 10.8969 14.3875 10.8528 14.4051 10.8088C14.4254 10.7682 14.4457 10.7277 14.4592 10.6871L14.52 10.5249L14.5809 10.3626C14.5876 10.3423 14.5944 10.3204 14.6012 10.2984C14.6079 10.2764 14.6147 10.2545 14.6214 10.2342C14.6316 10.2004 14.6434 10.1683 14.6552 10.1362C14.6671 10.1041 14.6789 10.0719 14.689 10.0381L14.7093 9.97055L14.7769 9.73394L13.7629 9.42298L13.6818 9.39594L13.7224 9.4027ZM11.0048 2.39256H10.9981L10.9967 2.39182L10.9675 2.44932L11.0048 2.39256ZM8.50185 13.1965L8.50222 13.1356L8.50894 13.1958L8.50185 13.1965ZM13.5067 11.2162L13.5067 11.2162L13.5067 11.2162L13.5066 11.2163L13.5066 11.2163L13.5066 11.2164L13.5066 11.2164L13.5065 11.2164L13.5065 11.2165L13.5065 11.2165L13.5065 11.2166L13.5065 11.2166L13.5064 11.2166L13.5064 11.2167L13.5064 11.2167L13.5064 11.2168L13.5063 11.2168L13.5063 11.2168C13.5181 11.1958 13.5299 11.1747 13.5419 11.1539C13.5301 11.1745 13.5184 11.1953 13.5067 11.2162ZM2.14244 10.4302C2.12932 10.3952 2.11336 10.3602 2.09823 10.327L2.14244 10.4302ZM4.01116 4.73165L3.96434 4.68794L3.96047 4.69229L4.01116 4.73165ZM8 11C9.65685 11 11 9.65685 11 8C11 6.34315 9.65685 5 8 5C6.34315 5 5 6.34315 5 8C5 9.65685 6.34315 11 8 11Z" fill="black"/>
<path d="M11.5 16C13.9853 16 16 13.9853 16 11.5C16 9.01472 13.9853 7 11.5 7C9.01472 7 7 9.01472 7 11.5C7 13.9853 9.01472 16 11.5 16Z" fill="#E12F2D"/>
<path d="M11.4996 15.6786C13.8074 15.6786 15.6782 13.8078 15.6782 11.5C15.6782 9.19223 13.8074 7.32142 11.4996 7.32142C9.19189 7.32142 7.32108 9.19223 7.32108 11.5C7.32108 13.8078 9.19189 15.6786 11.4996 15.6786Z" stroke="white" stroke-width="0.642857"/>
<path d="M12.6645 13.4223L11.5288 12.2866L10.3931 13.4223C10.3529 13.4625 10.2984 13.485 10.2416 13.485C10.1847 13.485 10.1303 13.4625 10.0901 13.4223L9.63557 12.9678C9.61564 12.9479 9.59984 12.9243 9.58906 12.8983C9.57828 12.8722 9.57272 12.8444 9.57272 12.8162C9.57272 12.788 9.57828 12.7601 9.58906 12.7341C9.59984 12.7081 9.61564 12.6845 9.63557 12.6646L10.7713 11.5289L9.63557 10.3932C9.5954 10.353 9.57283 10.2985 9.57283 10.2417C9.57283 10.1848 9.5954 10.1303 9.63557 10.0902L10.0888 9.63416C10.129 9.59399 10.1835 9.57142 10.2403 9.57142C10.2971 9.57142 10.3516 9.59399 10.3918 9.63416L11.5275 10.7699L12.6632 9.63416C12.7034 9.59399 12.7579 9.57142 12.8147 9.57142C12.8715 9.57142 12.926 9.59399 12.9662 9.63416L13.4207 10.0887C13.4609 10.1288 13.4835 10.1833 13.4835 10.2402C13.4835 10.297 13.4609 10.3515 13.4207 10.3917L12.285 11.5274L13.4207 12.6631C13.4406 12.683 13.4564 12.7066 13.4672 12.7326C13.478 12.7586 13.4836 12.7865 13.4836 12.8147C13.4836 12.8429 13.478 12.8707 13.4672 12.8968C13.4564 12.9228 13.4406 12.9464 13.4207 12.9663L12.9662 13.4208C12.926 13.461 12.8715 13.4835 12.8147 13.4835C12.7579 13.4835 12.7034 13.461 12.6632 13.4208L12.6645 13.4223Z" fill="white"/>
</svg>
