<svg version="1.2" baseProfile="tiny" viewBox="0 0 18 15.549" xmlns:xlink="http://www.w3.org/1999/xlink" xmlns="http://www.w3.org/2000/svg">
<path style="fill:#ffffff;" d="M11.52966,4.70849A2.49575,2.49575,0,0,1,9.966,7.12749c-.06908,0-.14686.13825-.14686.20738L9.75,10.8251a.676.676,0,0,1-.63065.71707H8.89471a.73083.73083,0,0,1-.70842-.71707l.06913-3.41251c0-.07772-.06913-.14685-.13821-.216A2.57759,2.57759,0,0,1,6.62259,3.92238,2.47322,2.47322,0,0,1,8.03944,2.42776l.216-.06908h.06907V5.201h1.3564V2.28091H9.75l.216.07777a2.22,2.22,0,0,1,1.149.933A2.563,2.563,0,0,1,11.52966,4.70849Z"/>
</svg>