<svg id="Content" xmlns="http://www.w3.org/2000/svg" viewBox="0 0 404 139"><defs><style>.cls-1{fill:#fff;}</style></defs><title>PlantPAx</title><path class="cls-1" d="M50.94,36.76H74.72c16.2,0,16.82,11.71,15.09,19.86C87.32,68.33,80,76.56,64.62,76.56H57.85l-5.43,25.53H37.05Zm9.32,28.46h4.21c6.13,0,8.41-3.84,9.34-8.24,1.07-5,.24-8.87-6-8.87H63.89Z"/><path class="cls-1" d="M101.53,36.76h14.82l-13.88,65.33H87.64Z"/><path class="cls-1" d="M118.08,67.78c1.54-6.77,4.42-10.89,8.41-13.27s8.36-3.2,14.49-3.2c12.17,0,16.67,4.21,14.46,14.64L150,91.39c-.8,3.75-1.81,8.51-.54,10.7H135.22a22.65,22.65,0,0,1,.38-5.67h-.18a16.14,16.14,0,0,1-13.1,7c-8.32,0-12.24-4.39-10-15.09,1.22-5.77,4.63-10.62,8.72-12.63s9.77-2.93,14.12-4c4.74-1.19,5.72-1.92,6.51-5.67.65-3-.32-4.94-3.61-4.94-4.12,0-5.83,2.47-6.84,6.77ZM129.9,93.12c3.11,0,6.33-1.83,7.38-6.77.88-4.11,1.52-6.68,1.94-8.69-5.19,2.47-7.22,2.56-8.83,3.66a7.85,7.85,0,0,0-3.45,5.49C126.1,90.75,127.15,93.12,129.9,93.12Z"/><path class="cls-1" d="M167.33,52.59h14.28l-1.25,5.86h.19A16.24,16.24,0,0,1,194,51.31c8.41,0,12,4.21,10,13.73l-7.88,37.05H181.24l7.18-33.76c.76-3.57-.35-5.67-3.1-5.67s-5.77,2.19-6.8,7l-6.89,32.39H156.81Z"/><path class="cls-1" d="M214.56,62.84h-6.13l2.18-10.25h6.13L219.83,38h14.82l-3.09,14.55h6.86l-2.17,10.25h-6.87l-5.31,25c-.74,3.47.31,4.57,3.79,4.57a17.48,17.48,0,0,0,2.14-.18l-2.1,9.88a68.36,68.36,0,0,1-8.62.55c-10.25,0-12.79-1.83-10.34-13.36Z"/><path class="cls-1" d="M248.28,36.76H269c12.53,0,16.35,7.87,14,19-2.49,11.72-11,19.31-23.23,19.31h-9.15l-5.73,27H234.4Zm4,30.47h7.41c5.58,0,11.07-3,12.82-11.25,1.5-7-.42-11.35-8.75-11.35H257Z"/><path class="cls-1" d="M303,36.76h13.36l3.31,65.33H308.79l-.62-16H289.05l-7.61,16H270.55Zm5.19,41-.65-32.2h-.19l-14.62,32.2Z"/><path class="cls-1" d="M338,76.56l-7.68-23.69h10.79l4.23,16.28,11.51-16.28h10.61L349.63,76.56l7.93,25.53H346.85l-4.73-18.21-12.47,18.21H319.13Z"/><path class="cls-1" d="M378.62,44.59a6.72,6.72,0,1,1,0,13.44,6.72,6.72,0,1,1,0-13.44Zm-.13,1.54a5.18,5.18,0,1,0,5,5.14,5,5,0,0,0-5-5.14Zm-.89,8.46h-1.7V48.23a12,12,0,0,1,2.59-.24,3.82,3.82,0,0,1,2.39.53,1.6,1.6,0,0,1,.65,1.37,1.7,1.7,0,0,1-1.38,1.46v.08a1.9,1.9,0,0,1,1.22,1.62,6.15,6.15,0,0,0,.44,1.54H380a3.88,3.88,0,0,1-.44-1.46,1.12,1.12,0,0,0-1.26-1h-.65Zm0-3.64h.65c.77,0,1.34-.29,1.34-.85s-.41-.85-1.26-.85c-.28,0-.56,0-.73,0Z"/></svg>